<svg aria-hidden="true" focusable="false" class="fl-on-interaction-primary" width="16" height="16" viewBox="0 0 16 16" xmlns="http://www.w3.org/2000/svg"><path fill-rule="evenodd" clip-rule="evenodd" d="M9.34515 2.56637C8.60771 1.8104 7.39229 1.8104 6.65485 2.56637L6.60681 2.61562C6.25315 2.97816 5.76812 3.1826 5.26165 3.1826H5.06237C4.02454 3.1826 3.18321 4.02393 3.18321 5.06177V5.26105C3.18321 5.76751 2.97877 6.25254 2.61623 6.6062L2.56698 6.65424C1.81101 7.39168 1.81101 8.6071 2.56698 9.34454L2.61623 9.39258C2.97877 9.74624 3.18321 10.2313 3.18321 10.7377V10.937C3.18321 11.9748 4.02454 12.8162 5.06238 12.8162H5.26166C5.76812 12.8162 6.25315 13.0206 6.60681 13.3832L6.65485 13.4324C7.39229 14.1884 8.60771 14.1884 9.34515 13.4324L9.39319 13.3832C9.74685 13.0206 10.2319 12.8162 10.7383 12.8162H10.9376C11.9755 12.8162 12.8168 11.9748 12.8168 10.937V10.7377C12.8168 10.2313 13.0212 9.74624 13.3838 9.39258L13.433 9.34454C14.189 8.6071 14.189 7.39168 13.433 6.65424L13.3838 6.6062C13.0212 6.25254 12.8168 5.76751 12.8168 5.26104V5.06176C12.8168 4.02393 11.9755 3.1826 10.9376 3.1826H10.7383C10.2319 3.1826 9.74685 2.97816 9.39319 2.61562L9.34515 2.56637ZM6.25 7.24939C6.80228 7.24939 7.25 6.80167 7.25 6.24939C7.25 5.6971 6.80228 5.24939 6.25 5.24939C5.69772 5.24939 5.25 5.6971 5.25 6.24939C5.25 6.80167 5.69772 7.24939 6.25 7.24939ZM10.1214 5.87833C9.92611 5.68307 9.60953 5.68307 9.41427 5.87833L5.87873 9.41387C5.68347 9.60913 5.68347 9.92571 5.87873 10.121C6.074 10.3162 6.39058 10.3162 6.58584 10.121L10.1214 6.58544C10.3166 6.39018 10.3166 6.0736 10.1214 5.87833ZM10.75 9.74939C10.75 10.3017 10.3023 10.7494 9.75 10.7494C9.19772 10.7494 8.75 10.3017 8.75 9.74939C8.75 9.1971 9.19772 8.74939 9.75 8.74939C10.3023 8.74939 10.75 9.1971 10.75 9.74939Z"></path></svg>